<?xml version="1.0" encoding="UTF-8"?>
<svg id="Layer_1" data-name="Layer 1" xmlns="http://www.w3.org/2000/svg" viewBox="0 0 605 490">
  <defs>
    <style>
      .cls-1 {
        fill: #ce9fcf;
      }
    </style>
  </defs>
  <polygon class="cls-1" points="295.79 22.51 88.45 22.51 182.54 140.88 295.79 22.51"/>
  <polygon class="cls-1" points="411.76 143.4 302.49 28.83 192.88 143.4 411.76 143.4"/>
  <polygon class="cls-1" points="516.54 22.51 309.2 22.51 422.09 140.88 516.54 22.51"/>
  <path class="cls-1" d="M525.7,23.81c-.37-.79-1.18-1.3-2.05-1.3h-.14l2.53,2.02-.34-.72Z"/>
  <polygon class="cls-1" points="24.94 152.61 293.52 458.51 179.07 152.61 24.94 152.61"/>
  <polygon class="cls-1" points="431.87 143.4 581.84 143.4 526.29 25.06 431.87 143.4"/>
  <polygon class="cls-1" points="311.34 458.53 580.06 152.61 425.55 152.61 311.34 458.53"/>
  <polygon class="cls-1" points="78.71 25.06 23.16 143.4 172.77 143.4 78.71 25.06"/>
  <polygon class="cls-1" points="188.91 152.61 302.43 456.03 415.72 152.61 188.91 152.61"/>
  <path d="M540.3,16.96c-3.02-6.43-9.55-10.58-16.65-10.58H81.35c-7.1,0-13.63,4.15-16.65,10.58L7,139.89c-3.11,6.62-2,14.45,2.83,19.95l278.79,317.52c3.49,3.98,8.53,6.26,13.82,6.26h0c5.29,0,10.33-2.28,13.82-6.25l278.91-317.52c4.83-5.5,5.94-13.33,2.83-19.95l-57.7-122.93ZM516.54,22.51l-94.45,118.38-112.89-118.38h207.34ZM411.76,143.4h-218.87l109.61-114.57,109.26,114.57ZM295.79,22.51l-113.25,118.38L88.45,22.51h207.34ZM78.71,25.06l94.06,118.34H23.16L78.71,25.06ZM24.94,152.61h154.13l114.45,305.89L24.94,152.61ZM302.43,456.03l-113.53-303.42h226.81l-113.29,303.42ZM311.34,458.53l114.22-305.91h154.5l-268.72,305.91ZM431.87,143.4l94.41-118.34,55.55,118.34h-149.96Z"/>
</svg>